# xmcd
#
# Track frame offsets: 
#        150
#        19324
#        43360
#        69811
#        107034
#        136467
#        155930
#        169140
#        196333
#        219512
#        251850
#        285064
#
# Disc length: 4244 seconds
#
# Revision: 0
# Processed by: cddbd v1.5.2PL0 Copyright (c) Steve Scherf et al.
# Submitted via: ExactAudioCopy v0.95a4
#
DISCID=b210920c
DTITLE=Tom Killner - Live
DYEAR=2017
DGENRE=Blues
TTITLE0=Like It This Way
TTITLE1=King Bee
TTITLE2=Ain't No Rest For The Wicked
TTITLE3=Have You Ever Loved A Woman
TTITLE4=Higher Ground
TTITLE5=Cocaine Blues
TTITLE6=Crosstown Traffic
TTITLE7=Soulshine
TTITLE8=Whipping Post
TTITLE9=The Weight
TTITLE10=Foxy Lady
TTITLE11=With A Little Help From My Friends
EXTD=
EXTT0=
EXTT1=
EXTT2=
EXTT3=
EXTT4=
EXTT5=
EXTT6=
EXTT7=
EXTT8=
EXTT9=
EXTT10=
EXTT11=
PLAYORDER=
